<svg width="200.000000" height="115.000000" viewBox="0 0 200 115" fill="none" xmlns="http://www.w3.org/2000/svg" xmlns:xlink="http://www.w3.org/1999/xlink">
	<desc>
			Created with Pixso.
	</desc>
	<defs>
		<clipPath id="clip2_27">
			<rect id="logo-header" width="200.000000" height="115.000000" fill="white" fill-opacity="0"/>
		</clipPath>
	</defs>
	<g clip-path="url(#clip2_27)">
		<path id="path" d="M27.46 82.5C26.66 81.7 25.73 80.76 24.53 80.09C22.66 79.02 20.13 78.22 16.79 78.22C12.13 78.22 7.86 80.09 4.93 83.3C1.86 86.38 0 90.79 0 95.87C0 100.95 1.86 105.37 4.93 108.44C8 111.65 12.26 113.52 16.79 113.52C20 113.52 22.66 112.72 24.53 111.65C25.73 110.98 26.66 110.18 27.46 109.25L27.46 112.59L33.59 112.59L33.59 79.16L27.46 79.16L27.46 82.5ZM16.93 107.64C13.86 107.64 11.2 106.44 9.33 104.3C7.46 102.16 6.26 99.22 6.26 95.87C6.26 92.53 7.46 89.45 9.33 87.45C11.2 85.31 13.86 84.11 16.93 84.11C20.13 84.11 22.93 85.31 24.93 87.45C26.93 89.59 28.13 92.53 28.13 95.87C28.13 99.22 26.93 102.16 24.93 104.3C22.93 106.44 20.13 107.64 16.93 107.64Z" fill="#FFFFFF" fill-opacity="1.000000" fill-rule="nonzero"/>
		<path id="path" d="M71.46 79.16L70.12 79.16L64.39 79.16L56.39 89.99L48.39 79.16L41.32 79.16L53.06 94.8L40.39 112.59L47.32 112.59L56.52 99.75L65.59 112.59L72.52 112.59L59.86 94.8L71.46 79.16Z" fill="#FFFFFF" fill-opacity="1.000000" fill-rule="nonzero"/>
		<path id="path" d="M100.26 79.56C98.4 78.76 96.26 78.22 94 78.22C89.2 78.22 85.06 79.96 82 83.04C79.06 86.25 77.33 90.66 77.33 96.01L77.33 96.27C77.33 101.36 79.06 105.77 82 108.71C84.93 111.79 89.2 113.39 94.13 113.39C96.53 113.39 98.8 113.12 101.06 112.19C103.33 111.25 105.46 109.78 107.6 107.51L108 106.97L103.86 102.96L103.33 103.5C102 104.83 100.8 105.9 99.33 106.57C97.86 107.24 96.26 107.64 94 107.64C92.4 107.64 90.93 107.37 89.73 106.84C87.86 106.04 86.26 104.83 85.2 103.09C84.26 101.62 83.6 99.62 83.46 97.48L109.33 97.48L109.33 96.81C109.33 95.87 109.33 94.8 109.33 94.67C109.33 90.12 107.86 85.98 105.2 82.9C103.86 81.56 102.26 80.36 100.26 79.56ZM86.93 86.65C88.8 85.04 91.2 84.11 94 84.11C96.53 84.11 98.66 85.04 100.26 86.65C101.73 88.12 102.66 89.99 102.8 92.13L83.86 92.13C84.13 89.99 85.33 87.98 86.93 86.65Z" fill="#FFFFFF" fill-opacity="1.000000" fill-rule="nonzero"/>
		<path id="path" d="M140.39 80.63C138.39 79.29 135.86 78.62 133.06 78.62C130.53 78.62 128.26 79.29 126.4 80.36C125.33 81.03 124.4 81.83 123.6 82.77L123.6 79.02L117.33 79.02L117.33 112.45L123.46 112.45L123.46 92.8C123.46 90.26 124.26 88.25 125.73 86.78C127.2 85.31 129.2 84.51 131.73 84.51C132.93 84.51 134 84.64 134.93 85.04C136.26 85.58 137.46 86.51 138.13 87.72C138.93 88.92 139.33 90.52 139.33 92.4L139.33 112.59L145.46 112.59L145.46 91.46C145.46 89.59 145.2 87.85 144.66 86.24C143.86 83.97 142.39 81.97 140.39 80.63Z" fill="#FFFFFF" fill-opacity="1.000000" fill-rule="nonzero"/>
		<path id="path" d="M154.8 112.59L155.46 112.59L161.06 112.59L161.06 79.16L154.8 79.16L154.8 112.59Z" fill="#FFFFFF" fill-opacity="1.000000" fill-rule="nonzero"/>
		<path id="path" d="M187.33 94.8L198.93 79.16L191.86 79.16L183.86 89.99L175.86 79.16L168.79 79.16L180.53 94.8L167.86 112.59L174.79 112.59L183.99 99.75L193.06 112.59L199.99 112.59L187.33 94.8Z" fill="#FFFFFF" fill-opacity="1.000000" fill-rule="nonzero"/>
		<path id="path" d="M28.12 62.44C27.72 61.64 27.32 60.84 27.06 60.04C26.26 57.5 26.12 54.82 26.66 52.28C27.32 49.74 28.66 47.33 30.66 45.46L71.46 8.95L71.46 1.47L27.06 41.58C25.06 43.32 23.59 45.46 22.52 47.6C20.92 50.94 20.39 54.69 20.92 58.3C21.46 61.91 23.06 65.52 25.59 68.46L27.46 70.47L71.46 30.75L71.46 23.4L28.12 62.44Z" fill="#FFFFFF" fill-opacity="1.000000" fill-rule="nonzero"/>
		<path id="path" d="M44 70.47L52.26 70.47L71.46 53.22L71.46 45.73L44 70.47Z" fill="#FFFFFF" fill-opacity="1.000000" fill-rule="nonzero"/>
	</g>
</svg>
